<svg height="512pt" viewBox="0 0 512 512" width="512pt" xmlns="http://www.w3.org/2000/svg"><path d="m512 256c0 37.542969-8.082031 73.199219-22.601562 105.324219-40.15625 88.847656-129.558594 25.675781-233.398438 25.675781-103.828125 0-193.222656 63.1875-233.386719-25.648438-14.527343-32.128906-22.613281-67.796874-22.613281-105.351562 0-141.386719 114.613281-256 256-256s256 114.613281 256 256zm0 0" fill="#00388b"/><path d="m447.796875 302.058594c-8.285156-11.808594-20.691406-20.082032-34.777344-23.199219l-103.34375-22.859375h-107.351562l-103.34375 22.859375c-14.085938 3.117187-26.492188 11.390625-34.777344 23.199219l-41.597656 59.273437c40.15625 88.84375 129.554687 150.667969 233.394531 150.667969s193.238281-61.824219 233.394531-150.667969zm0 0" fill="#ebeaec"/><path d="m255.90625 256h-53.582031l-103.34375 22.859375c-14.085938 3.117187-26.492188 11.390625-34.777344 23.199219l-41.597656 59.273437c40.15625 88.84375 129.550781 150.664063 233.386719 150.667969zm0 0" fill="#fefefe"/><path d="m275.316406 378.832031-19.324218-7.25-19.324219 7.25-14.746094 130.90625c11.148437 1.480469 22.523437 2.261719 34.078125 2.261719 11.550781 0 22.917969-.777344 34.0625-2.261719zm0 0" fill="#00a5fb"/><path d="m282.195312 369.667969c-.84375 3.769531-3.167968 7.035156-6.460937 9.054687-4.648437 2.84375-11.894531 6.277344-19.78125 6.277344-7.882813 0-15.089844-3.429688-19.714844-6.273438-3.277343-2.015624-5.585937-5.277343-6.429687-9.03125l-8.808594-39.265624h70zm0 0" fill="#00adfc"/><path d="m309.675781 287.519531s-12.121093 27.703125-53.675781 27.703125-53.675781-27.703125-53.675781-27.703125l-15.003907-107.925781h137.359376zm0 0" fill="#ffbf9d"/><path d="m324.679688 179.59375h-137.359376l9.96875 71.707031 15.070313 15.160157c7.097656 7.144531 16.945313 11.238281 27.011719 11.238281h33.257812c10.066406 0 19.914063-4.09375 27.011719-11.238281l15.070313-15.160157zm0 0" fill="#f7ad8d"/><path d="m343.695312 112.972656 9.878907-2.808594c3.234375-.921874 6.675781.492188 8.332031 3.421876l9.101562 16.101562c1.9375 3.429688 2.125 7.578125.503907 11.171875l-13.179688 29.152344c-2 4.421875-6.40625 7.265625-11.261719 7.265625-6.824218 0-12.355468-5.53125-12.355468-12.355469v-40.066406c0-5.519531 3.667968-10.375 8.980468-11.882813zm0 0" fill="#ffbf9d"/><path d="m168.304688 112.972656-9.878907-2.808594c-3.234375-.921874-6.675781.492188-8.332031 3.421876l-9.101562 16.101562c-1.9375 3.429688-2.125 7.578125-.503907 11.171875l13.179688 29.152344c2 4.421875 6.40625 7.265625 11.261719 7.265625 6.824218 0 12.355468-5.53125 12.355468-12.355469v-40.066406c0-5.519531-3.667968-10.375-8.980468-11.882813zm0 0" fill="#f7ad8d"/><path d="m201.316406 31.59375c-21.210937 13.222656-34.066406 36.492188-34.066406 61.484375v94.878906c0 6.097657 2.414062 11.949219 6.710938 16.273438l49.039062 49.34375c4.332031 4.359375 10.226562 6.8125 16.375 6.8125h33.253906c6.148438 0 12.039063-2.453125 16.375-6.8125l49.035156-49.34375c4.300782-4.324219 6.714844-10.175781 6.714844-16.273438v-84.207031c-.003906-66.519531-73.191406-115.949219-143.4375-72.15625zm0 0" fill="#ffd4bd"/><g fill="#ffbf9d"><path d="m220.066406 31.59375c15.214844-9.484375 30.566406-14.589844 45.285156-16.101562-20.109374-2.105469-42.210937 2.496093-64.035156 16.101562-21.210937 13.222656-34.066406 36.492188-34.066406 61.484375v94.878906c0 6.097657 2.410156 11.949219 6.710938 16.273438l49.035156 49.34375c-.003906-.007813-36.996094-60.441407-36.996094-65.617188v-94.878906c0-24.992187 12.855469-48.261719 34.066406-61.484375zm0 0"/><path d="m256 106.6875h-6.261719c-4.953125 0-8.816406 4.292969-8.292969 9.222656l6.261719 58.816406c.449219 4.242188 4.027344 7.460938 8.292969 7.460938s7.84375-3.21875 8.292969-7.460938l6.261719-58.816406c.523437-4.929687-3.339844-9.222656-8.292969-9.222656zm0 0"/><path d="m234.953125 205.796875c1.316406 1.214844 3.042969 1.890625 4.835937 1.890625h32.421876c1.792968 0 3.519531-.675781 4.835937-1.890625l2.597656-2.398437c1.429688-1.320313.496094-3.710938-1.453125-3.710938h-44.382812c-1.949219 0-2.882813 2.390625-1.453125 3.710938zm0 0"/></g><path d="m256 0c-57.207031 0-103.75 46.539062-103.75 103.746094v.722656l.738281 7.660156 14.800781 44.792969c10.058594 0 18.210938-8.152344 18.210938-18.210937v-54.378907l20.832031-20.832031h98.335938l20.832031 20.832031v54.378907c0 10.054687 8.152344 18.210937 18.210938 18.210937h.539062l14.261719-44.792969.738281-7.664062v-.71875c0-57.207032-46.542969-103.746094-103.75-103.746094zm0 0" fill="#bd200f"/><path d="m286.128906 116.167969h-60.257812c-32.078125 0-58.082032-26.007813-58.082032-58.082031v-53.085938c0-2.761719 2.238282-5 5-5h113.339844c32.078125 0 58.082032 26.003906 58.082032 58.082031s-26.003907 58.085938-58.082032 58.085938zm0 0" fill="#e83826"/><path d="m197.789062 58.082031v-53.082031c0-2.761719 2.238282-5 5-5h-30c-2.761718 0-5 2.238281-5 5v53.082031c0 32.078125 26.003907 58.082031 58.082032 58.082031h30c-32.078125.003907-58.082032-26.003906-58.082032-58.082031zm0 0" fill="#db2a17"/><path d="m315.757812 243.757812-59.757812 71.464844v17.777344l26.550781 27.308594c4.238281 4.359375 11.46875 3.460937 14.507813-1.804688l39.796875-68.925781c1.636719-2.832031 1.640625-6.320313.007812-9.15625zm0 0" fill="#fefefe"/><path d="m196.242188 243.757812 59.757812 71.464844v17.777344l-26.550781 27.308594c-4.238281 4.359375-11.46875 3.460937-14.507813-1.804688l-39.796875-68.925781c-1.636719-2.832031-1.640625-6.320313-.007812-9.15625zm0 0" fill="#ebeaec"/><path d="m105.769531 347.515625-26.675781 93.519531c10.195312 9.75 21.199219 18.664063 32.898438 26.636719zm0 0" fill="#ebeaec"/><path d="m432.957031 440.988281-26.664062-93.472656-6.222657 120.113281c11.695313-7.976562 22.695313-16.890625 32.886719-26.640625zm0 0" fill="#dad9dd"/></svg>